<?xml version="1.0" encoding="utf-8"?>
<!-- Generator: Adobe Illustrator 22.0.1, SVG Export Plug-In . SVG Version: 6.00 Build 0)  -->
<svg version="1.1" baseProfile="tiny" id="Laag_1" xmlns="http://www.w3.org/2000/svg" xmlns:xlink="http://www.w3.org/1999/xlink"
	 x="0px" y="0px" viewBox="0 0 251.2 171" xml:space="preserve">
<path fill="#808080" d="M-20.3,13.9l-0.1,0C-20.4,13.9-20,13.9-20.3,13.9z"/>
<g>
	<g>
		<path fill="#3C3C3B" d="M1.6,112.3v4.6h-1.7v-14.5h1.5l0.2,1.1c0.9-0.8,1.6-1.1,2.2-1.1h0.8c2.6,0,3.9,1.5,3.9,4.6v1.2
			c0,3-1.3,4.6-3.9,4.6H3.8C3.1,112.6,2.4,112.4,1.6,112.3z M1.6,104.9v5.9c0.8,0.3,1.5,0.4,2.2,0.4h0.8c1.5,0,2.2-1,2.2-3.1v-1.2
			c0-2.1-0.7-3.1-2.2-3.1H3.8C3.3,103.8,2.5,104.2,1.6,104.9z"/>
		<path fill="#3C3C3B" d="M22.6,103.8c-0.7,0-1.4-0.1-2.1-0.1c-0.6,0-1.2,0.4-2,1.1v7.8h-1.7v-10.4h1.5l0.2,1.1
			c0.8-0.8,1.4-1.1,2-1.1c0.7,0,1.4,0.1,2.1,0.2V103.8z"/>
		<path fill="#3C3C3B" d="M38.4,106.9v1.2c0,3-1.3,4.6-3.9,4.6h-1.2c-2.6,0-3.8-1.5-3.8-4.6v-1.2c0-3.1,1.3-4.6,3.8-4.6h1.2
			C37.1,102.3,38.4,103.9,38.4,106.9z M33.3,103.8c-1.5,0-2.2,1-2.2,3.1v1.2c0,2.1,0.7,3.1,2.2,3.1h1.2c1.5,0,2.2-1,2.2-3.1v-1.2
			c0-2.1-0.7-3.1-2.2-3.1H33.3z"/>
		<path fill="#3C3C3B" d="M48.5,102.1v11.2c0,2.3-1.2,3.5-3.5,3.6v-1.6c1.2,0,1.8-0.6,1.8-1.9v-11.2H48.5z M48.5,97.7v1.7h-1.7v-1.7
			H48.5z"/>
		<path fill="#3C3C3B" d="M58.4,108.4c0.2,1.9,1.2,2.8,3,2.8c0.7,0,1.8-0.1,3.2-0.2l0.2,1.4c-0.9,0.2-2.1,0.3-3.5,0.3
			c-3,0-4.5-1.7-4.5-5.2c0-3.5,1.1-5.2,3.4-5.2h1.7c2.1,0,3.2,1.3,3.3,4c-0.1,1.4-0.6,2.1-1.5,2.1H58.4z M63.5,106.2
			c0-1.5-0.6-2.3-1.9-2.3h-1.4c-1.1,0-1.7,1.1-1.9,3.1h4.3C63.2,106.9,63.5,106.7,63.5,106.2z"/>
		<path fill="#3C3C3B" d="M80.4,112.6l-3.7,0.2c-2.6,0-4-1.8-4-5.3c0-3.5,1.3-5.3,4-5.3l3.7,0.2v1.5l-3.7-0.1
			c-1.6,0-2.3,1.2-2.3,3.7c0,2.5,0.8,3.7,2.3,3.7l3.7-0.1V112.6z"/>
		<path fill="#3C3C3B" d="M90.6,99.8v2.5h2.9v1.4h-2.9v6.3c0,0.8,0.4,1.2,1,1.2l2-0.1v1.3l-2.3,0.2c-1.6,0-2.3-1-2.3-2.9v-6.1h-1.6
			v-1.4h1.6v-2.5H90.6z"/>
		<path fill="#3C3C3B" d="M102.1,102.3l2.6,8.4h0.4l2.7-8.4h1.8l-3.1,9.6c-0.2,0.5-0.5,0.8-1,0.8h-1.1c-0.5,0-0.9-0.3-1-0.8l-3-9.6
			H102.1z"/>
		<path fill="#3C3C3B" d="M118.2,108.4c0.2,1.9,1.2,2.8,3,2.8c0.7,0,1.8-0.1,3.2-0.2l0.2,1.4c-0.9,0.2-2.1,0.3-3.5,0.3
			c-3,0-4.5-1.7-4.5-5.2c0-3.5,1.1-5.2,3.4-5.2h1.7c2.1,0,3.2,1.3,3.3,4c-0.1,1.4-0.6,2.1-1.5,2.1H118.2z M123.3,106.2
			c0-1.5-0.6-2.3-1.9-2.3h-1.4c-1.1,0-1.7,1.1-1.9,3.1h4.3C123,106.9,123.3,106.7,123.3,106.2z"/>
		<path fill="#3C3C3B" d="M138.9,103.8c-0.7,0-1.4-0.1-2.1-0.1c-0.6,0-1.2,0.4-2,1.1v7.8H133v-10.4h1.5l0.2,1.1
			c0.8-0.8,1.4-1.1,2-1.1c0.7,0,1.4,0.1,2.1,0.2V103.8z"/>
		<path fill="#3C3C3B" d="M148.3,97.9v11.6c0,1.1,0.4,1.7,1.1,1.7l1.5-0.1v1.3l-1.5,0.2c-1.8,0-2.8-1.1-2.8-3.2V97.9H148.3z"/>
		<path fill="#3C3C3B" d="M160,97.9v1.7h-1.7v-1.7H160z M160,102.3v10.4h-1.7v-10.4H160z"/>
		<path fill="#3C3C3B" d="M175.7,112.6l-3.7,0.2c-2.6,0-4-1.8-4-5.3c0-3.5,1.3-5.3,4-5.3l3.7,0.2v1.5l-3.7-0.1
			c-1.6,0-2.3,1.2-2.3,3.7c0,2.5,0.8,3.7,2.3,3.7l3.7-0.1V112.6z"/>
		<path fill="#3C3C3B" d="M185.4,97.9v4.9c1-0.3,2.2-0.5,3.4-0.5c2.2,0,3.4,1,3.4,3.1v7.4h-1.7v-6c0-1.8-0.5-2.7-1.6-2.7
			c-1.3,0-2.5,0.2-3.6,0.6v8.1h-1.7V97.9H185.4z"/>
		<path fill="#3C3C3B" d="M203.2,99.8v2.5h2.9v1.4h-2.9v6.3c0,0.8,0.4,1.2,1,1.2l2-0.1v1.3l-2.3,0.2c-1.6,0-2.3-1-2.3-2.9v-6.1h-1.6
			v-1.4h1.6v-2.5H203.2z"/>
		<path fill="#3C3C3B" d="M215.1,108.4c0.2,1.9,1.2,2.8,3,2.8c0.7,0,1.8-0.1,3.2-0.2l0.2,1.4c-0.9,0.2-2.1,0.3-3.5,0.3
			c-3,0-4.5-1.7-4.5-5.2c0-3.5,1.1-5.2,3.4-5.2h1.7c2.1,0,3.2,1.3,3.3,4c-0.1,1.4-0.6,2.1-1.5,2.1H215.1z M220.2,106.2
			c0-1.5-0.6-2.3-1.9-2.3H217c-1.1,0-1.7,1.1-1.9,3.1h4.3C219.9,106.9,220.2,106.7,220.2,106.2z"/>
		<path fill="#3C3C3B" d="M235.8,103.8c-0.7,0-1.4-0.1-2.1-0.1c-0.6,0-1.2,0.4-2,1.1v7.8h-1.7v-10.4h1.5l0.2,1.1
			c0.8-0.8,1.4-1.1,2-1.1c0.7,0,1.4,0.1,2.1,0.2V103.8z"/>
		<path fill="#3C3C3B" d="M250.4,102.4v1.5l-4.1,0c-1.2,0-1.8,0.2-1.8,0.6v1.1c0.1,0.5,0.5,0.7,1.3,0.9l2.5,0.4
			c1.7,0.3,2.6,1.1,2.6,2.4v1c0,1.6-1.1,2.3-3.2,2.3l-4.6-0.1v-1.5l4.5,0c1.1,0,1.7-0.3,1.7-0.8v-1c0-0.5-0.5-0.8-1.3-0.9l-2.7-0.5
			c-1.5-0.4-2.2-1.1-2.3-2.3l0-1.1c0-1.5,1.1-2.2,3.4-2.2L250.4,102.4z"/>
	</g>
	<g>
		<rect x="-0.1" y="91.4" fill="#9C9B9B" width="250.8" height="1.4"/>
	</g>
	<g>
		<path fill="#3C3C3B" d="M-0.1,54.2h9.9v24.2h11.8c2,0,3.7,1.7,3.7,3.7v4.2H-0.1V54.2z"/>
		<path fill="#3C3C3B" d="M30.3,54.2h26.6v3.2c0,2-1.6,3.7-3.7,3.7h-13v5.1h15.4v6.6H40.2v6.3h17.1v7.3H30.3V54.2z"/>
		<path fill="#3C3C3B" d="M63.3,54.2H78c2.9,0,5.3,0.4,7,1.2c1.8,0.8,3.3,1.9,4.4,3.4c1.2,1.5,2,3.2,2.5,5.1c0.5,2,0.8,4,0.8,6.2
			c0,3.4-0.4,6.1-1.2,8c-0.8,1.9-1.9,3.5-3.3,4.8c-1.4,1.3-2.9,2.1-4.5,2.6c-2.2,0.6-4.1,0.9-5.9,0.9H63.3V54.2z M73.2,61.5V79h2.4
			c2.1,0,3.5-0.2,4.4-0.7c0.9-0.5,1.6-1.3,2.1-2.4c0.5-1.1,0.7-3,0.7-5.6c0-3.4-0.6-5.7-1.7-7c-1.1-1.3-3-1.9-5.5-1.9H73.2z"/>
		<path fill="#3C3C3B" d="M98.5,54.2h26.6v3.2c0,2-1.6,3.7-3.7,3.7h-13v5.1h15.4v6.6h-15.4v6.3h17.1v7.3H98.5V54.2z"/>
		<path fill="#3C3C3B" d="M129.6,75.7l9.4-0.6c0.2,1.5,0.6,2.7,1.2,3.5c1,1.3,2.5,1.9,4.4,1.9c1.4,0,2.5-0.3,3.3-1
			c0.8-0.7,1.1-1.4,1.1-2.3c0-0.8-0.4-1.6-1.1-2.2c-0.7-0.7-2.4-1.3-5.1-1.9c-4.4-1-7.5-2.3-9.3-3.9c-1.9-1.6-2.8-3.7-2.8-6.2
			c0-1.7,0.5-3.2,1.4-4.7c1-1.5,2.4-2.6,4.3-3.5c1.9-0.8,4.6-1.3,7.9-1.3c4.1,0,7.2,0.8,9.4,2.3c2.2,1.5,3.4,4,3.8,7.3l-9.4,0.5
			c-0.2-1.4-0.8-2.5-1.6-3.2c-0.8-0.7-1.9-1-3.3-1c-1.2,0-2,0.2-2.6,0.7c-0.6,0.5-0.9,1.1-0.9,1.8c0,0.5,0.2,1,0.7,1.4
			c0.5,0.4,1.6,0.8,3.3,1.2c4.3,0.9,7.4,1.9,9.3,2.8c1.9,1,3.2,2.1,4.1,3.6c0.9,1.4,1.3,3,1.3,4.8c0,2.1-0.6,4-1.7,5.7
			c-1.1,1.7-2.7,3.1-4.8,4c-2,0.9-4.6,1.3-7.7,1.3c-5.5,0-9.2-1.1-11.3-3.2C131.1,81.6,129.9,78.9,129.6,75.7z"/>
		<path fill="#3C3C3B" d="M164.6,54.2h9.9v32.1h-9.9V54.2z"/>
		<path fill="#3C3C3B" d="M198.3,74.7v-3c0-2,1.6-3.7,3.7-3.7h11.7v13.7c-2.9,2-5.5,3.4-7.8,4.1c-2.3,0.7-4.9,1.1-8,1.1
			c-3.8,0-6.9-0.6-9.3-1.9c-2.4-1.3-4.3-3.2-5.6-5.8c-1.3-2.6-2-5.5-2-8.9c0-3.5,0.7-6.6,2.2-9.1c1.4-2.6,3.6-4.6,6.4-5.9
			c2.2-1,5.1-1.6,8.8-1.6c3.5,0,6.2,0.3,8,1c1.8,0.6,3.2,1.6,4.4,3c1.2,1.4,2,3.1,2.6,5.1l-9.6,1.7c-0.4-1.2-1.1-2.1-2-2.8
			c-0.9-0.6-2.1-1-3.6-1c-2.2,0-3.9,0.8-5.2,2.3c-1.3,1.5-1.9,3.9-1.9,7.2c0,3.5,0.7,6,2,7.4c1.3,1.5,3.1,2.2,5.5,2.2
			c1.1,0,2.2-0.2,3.2-0.5c1-0.3,2.2-0.9,3.5-1.6v-3H198.3z"/>
		<path fill="#3C3C3B" d="M223.7,54.2h5.6L241.4,72V54.2h9.4v28.4c0,2-1.6,3.7-3.7,3.7h-5.7l-12-17.6v17.6H220V57.9
			C220,55.9,221.7,54.2,223.7,54.2z"/>
	</g>
</g>
<linearGradient id="SVGID_1_" gradientUnits="userSpaceOnUse" x1="200.6766" y1="161.2902" x2="200.8856" y2="161.2902">
	<stop  offset="0.7418" style="stop-color:#009EE2"/>
	<stop  offset="0.87" style="stop-color:#FFFFFF"/>
</linearGradient>
<path fill="url(#SVGID_1_)" d="M200.8,161.3l-0.1,0C200.7,161.3,201,161.3,200.8,161.3z"/>
<linearGradient id="SVGID_2_" gradientUnits="userSpaceOnUse" x1="143.9849" y1="-13.0061" x2="143.9849" y2="56.7743">
	<stop  offset="0.7418" style="stop-color:#009EE2"/>
	<stop  offset="0.87" style="stop-color:#FFFFFF"/>
</linearGradient>
<path fill="url(#SVGID_2_)" d="M150.9,17.2c4.8-1.2,8.9-0.7,12.2,1.3c3.3,2,5.5,5.4,6.7,10.3c1.4,5.9,1.4,12.7,0,20.5h6.7
	c2.1-10,2.3-18.4,0.6-25.3c-1.3-5.3-3.7-9.1-7.3-11.3c-3.6-2.2-8.1-2.7-13.4-1.4c-14.5,3.5-30.1,16.2-46.7,38h1
	C125.1,30.9,138.5,20.2,150.9,17.2z"/>
<linearGradient id="SVGID_3_" gradientUnits="userSpaceOnUse" x1="108.062" y1="177.5772" x2="108.062" y2="109.0699">
	<stop  offset="0.7418" style="stop-color:#009EE2"/>
	<stop  offset="0.87" style="stop-color:#FFFFFF"/>
</linearGradient>
<path fill="url(#SVGID_3_)" d="M133.9,120.4c-13.9,17.1-26.7,27.1-38.6,29.9c-4.8,1.2-8.9,0.7-12.2-1.3c-3.3-2-5.5-5.4-6.7-10.3
	c-1.4-5.9-1.3-12.9,0.3-21.1H75c-2.8,11.4-3.3,20.9-1.5,28.7c1.3,5.3,3.7,9.1,7.4,11.3c3.7,2.2,8.2,2.7,13.5,1.5
	c15.3-3.7,31.6-17.4,49-41.1l0.3-0.4h-7.4L133.9,120.4z"/>
<linearGradient id="SVGID_4_" gradientUnits="userSpaceOnUse" x1="142.5895" y1="177.4106" x2="142.5895" y2="109.0673">
	<stop  offset="0.7418" style="stop-color:#D60B51"/>
	<stop  offset="0.87" style="stop-color:#FFFFFF"/>
</linearGradient>
<path fill="url(#SVGID_4_)" d="M174.1,138.8c-1.2,4.8-3.4,8.3-6.7,10.3c-3.3,2-7.3,2.4-12.2,1.3c-11.8-2.8-24.7-12.8-38.6-29.9
	l-2.4-2.7h-7.4l0.3,0.4c17.4,23.7,33.7,37.4,49,41.1c5.3,1.3,9.8,0.8,13.5-1.5c3.7-2.3,6.1-6,7.4-11.3c1.9-7.8,1.4-17.4-1.5-28.7
	h-1.8C175.4,125.9,175.5,132.9,174.1,138.8z"/>
<linearGradient id="SVGID_5_" gradientUnits="userSpaceOnUse" x1="106.6666" y1="-13.2561" x2="106.6666" y2="56.0228">
	<stop  offset="0.7418" style="stop-color:#D60B51"/>
	<stop  offset="0.87" style="stop-color:#FFFFFF"/>
</linearGradient>
<path fill="url(#SVGID_5_)" d="M80.9,28.7c1.2-4.8,3.4-8.3,6.7-10.3c3.3-2,7.3-2.4,12.2-1.3c12.5,3,25.9,13.7,40.2,32.1h1
	c-16.6-21.8-32.1-34.5-46.7-38c-5.3-1.3-9.8-0.8-13.4,1.4c-3.6,2.2-6.1,6-7.3,11.3c-1.6,6.8-1.4,15.3,0.6,25.3h6.7
	C79.5,41.5,79.5,34.6,80.9,28.7z"/>
<linearGradient id="SVGID_6_" gradientUnits="userSpaceOnUse" x1="127.0145" y1="-13.0061" x2="127.0145" y2="56.5698">
	<stop  offset="0.7418" style="stop-color:#FFEC00"/>
	<stop  offset="0.87" style="stop-color:#FFFFFF"/>
</linearGradient>
<path fill="url(#SVGID_6_)" d="M121,13.5c3.7-3.3,7.5-4.8,11.3-4.6c3.8,0.2,7.4,2.2,10.7,5.9c6.6,7.4,11,18.9,13.3,34.5h1
	c-2.3-19.3-7.5-33.5-15.5-42.4c-3.6-4.1-7.6-6.2-11.8-6.5c-4.2-0.2-8.4,1.4-12.5,5.1c-5.9,5.3-11.1,13.6-15.4,24.8
	c-2.2,5.8-4.1,12.2-5.7,19h6.3C107.1,32.5,113.1,20.6,121,13.5z"/>
<linearGradient id="SVGID_7_" gradientUnits="userSpaceOnUse" x1="123.6303" y1="177.4106" x2="123.6303" y2="108.9006">
	<stop  offset="0.7418" style="stop-color:#FFEC00"/>
	<stop  offset="0.87" style="stop-color:#FFFFFF"/>
</linearGradient>
<path fill="url(#SVGID_7_)" d="M152.9,120.8c-4.3,17.3-10.3,29.4-18,36.3c-3.7,3.3-7.5,4.8-11.3,4.6c-3.8-0.2-7.4-2.2-10.7-5.9
	c-7-7.9-11.6-20.6-13.8-38.1h-6.4c2.1,21.1,7.4,36.5,15.9,46c3.6,4.1,7.6,6.2,11.9,6.5c4.3,0.2,8.5-1.4,12.6-5.1
	c8.5-7.6,15.1-20.8,19.9-39.6c0.6-2.6,1.2-5.1,1.8-7.8h-1C153.4,118.8,153.1,119.8,152.9,120.8z"/>
<g>
</g>
<g>
</g>
<g>
</g>
<g>
</g>
<g>
</g>
<g>
</g>
</svg>
